<svg xmlns="http://www.w3.org/2000/svg" viewBox="0 0 32 32" id="Add">
  <g fill="#ffffff" class="color000000 svgShape">
    <path d="M16 0C7.163 0 0 7.163 0 16s7.163 16 16 16 16-7.163 16-16A16 16 0 0 0 16 0zm0 28C9.373 28 4 22.627 4 16S9.373 4 16 4s12 5.373 12 12c-.007 6.624-5.376 11.993-12 12z" fill="#ffffff" class="color000000 svgShape"></path>
    <path d="M22.02 14H18V9.98A1.98 1.98 0 0 0 16.02 8h-.04A1.98 1.98 0 0 0 14 9.98V14H9.98A1.98 1.98 0 0 0 8 15.98v.04A1.98 1.98 0 0 0 9.98 18H14v4.02A1.98 1.98 0 0 0 15.98 24h.04A1.98 1.98 0 0 0 18 22.02V18h4.02A1.98 1.98 0 0 0 24 16.02v-.04A1.98 1.98 0 0 0 22.02 14z" fill="#ffffff" class="color000000 svgShape"></path>
  </g>
</svg>
