<svg xmlns="http://www.w3.org/2000/svg" viewBox="0 0 32 32" id="Logout">
  <g fill="#ffffff" class="color000000 svgShape">
    <path d="M25.8788,16.2133l0-.002-.0056-.0068a.5006.5006,0,0,0-.1033-.1558L19.738,10.058a.5.5,0,0,0-.7051.71l5.1709,5.1358H7.4172a.5.5,0,0,0,0,1H24.2165l-5.186,5.2236a.5.5,0,0,0,.71.7051l6.03-6.0752.0015-.001a.4839.4839,0,0,0,.1208-.2288.4659.4659,0,0,0,.0111-.0584A.4961.4961,0,0,0,25.8788,16.2133Z" fill="#ffffff" class="color000000 svgShape"></path>
    <path d="M5.9811,16.4037a1.5,1.5,0,0,1,1.5-1.5h6.4683V3.49a.5.5,0,0,0-.5-.5H4.4172a1.5016,1.5016,0,0,0-1.5,1.5v24a1.5016,1.5016,0,0,0,1.5,1.5h9.0322a.5.5,0,0,0,.5-.5V17.9037H7.4811A1.5,1.5,0,0,1,5.9811,16.4037Z" fill="#ffffff" class="color000000 svgShape"></path>
  </g>
</svg>
