<svg xmlns="http://www.w3.org/2000/svg" viewBox="0 0 32 32" id="Share">
  <path fill="#000000" d="M7.394 21.44a5.43 5.43 0 0 0 4.349-2.187l7.995 4.904a5.396 5.396 0 0 0-.566 2.401c0 2.999 2.44 5.439 5.439 5.439s5.438-2.44 5.438-5.439-2.439-5.439-5.438-5.439a5.43 5.43 0 0 0-4.349 2.186l-7.995-4.904c.359-.726.566-1.539.566-2.401s-.207-1.676-.566-2.402l7.995-4.902a5.428 5.428 0 0 0 4.349 2.186c2.999 0 5.438-2.44 5.438-5.44S27.61.003 24.611.003s-5.439 2.44-5.439 5.439c0 .863.207 1.677.566 2.402l-7.995 4.902a5.428 5.428 0 0 0-4.349-2.186C4.395 10.561 1.955 13 1.955 16s2.44 5.44 5.439 5.44z" class="color9ca4bd svgShape"></path>
</svg>
