<svg xmlns="http://www.w3.org/2000/svg" viewBox="0 0 512 512" id="Share">
  <path d="M403.276 292.007c-32.686-.37-62.134 13.519-82.514 35.832l-102.677-51.338C219.337 269.858 220 263.007 220 256s-.663-13.858-1.915-20.501l102.677-51.338c20.38 22.313 49.828 36.203 82.514 35.832 59.44-.674 107.988-49.175 108.716-108.615C512.741 50.156 463.469.262 402.48.001c-59.789-.256-108.448 46.57-110.42 106.326a110.567 110.567 0 0 0 1.855 24.174L191.239 181.84c-20.372-22.304-49.805-36.192-82.476-35.833C49.388 146.66.836 195.062.011 254.435-.844 315.903 48.728 366 110 366c32.176 0 61.124-13.817 81.239-35.84l102.677 51.338a110.69 110.69 0 0 0-1.855 24.174c1.972 59.757 50.631 106.582 110.42 106.326 60.988-.261 110.26-50.155 109.511-111.377-.728-59.439-49.276-107.94-108.716-108.614z" fill="#ffffff" class="color000000 svgShape"></path>
</svg>
